<svg xmlns="http://www.w3.org/2000/svg" xmlns:xlink="http://www.w3.org/1999/xlink" viewBox="0 0 149 39"><defs><style>.cls-1{fill:#b72bf6;}.cls-2{fill:#585875;}.cls-3{fill:url(#Безымянный_градиент_4);}.cls-4{fill:#fff;}</style><linearGradient id="Безымянный_градиент_4" x1="20" x2="20" y2="39" gradientUnits="userSpaceOnUse"><stop offset="0" stop-color="#9a32ef"/><stop offset="0.99" stop-color="#d623ff"/></linearGradient></defs><g id="Слой_2" data-name="Слой 2"><g id="Слой_1-2" data-name="Слой 1"><path class="cls-1" d="M50.11,7.7a7.1,7.1,0,0,1,.72,0,1.73,1.73,0,0,1,.5.15,1.69,1.69,0,0,1,.41.32,5.75,5.75,0,0,1,.45.53l6.68,8.54a.24.24,0,0,0,.23.12h.16c.1,0,.15-.05.15-.17V8.08a.34.34,0,0,1,.39-.38h1.88c.27,0,.4.13.4.38v10a2,2,0,0,1-.4,1.44,1.71,1.71,0,0,1-1.22.38H58.92a4.58,4.58,0,0,1-.69,0,1.41,1.41,0,0,1-.49-.14,1.68,1.68,0,0,1-.43-.3c-.13-.14-.29-.32-.47-.55l-6.69-8.54a.34.34,0,0,0-.24-.13h-.16c-.1,0-.14.06-.14.18v9.13a.35.35,0,0,1-.4.39H47.33q-.42,0-.42-.39v-10a2,2,0,0,1,.4-1.44,1.71,1.71,0,0,1,1.22-.38Z"/><path class="cls-1" d="M77.94,7.7c.28,0,.42.13.42.38V9.75c0,.25-.14.38-.42.38H70.16a4.64,4.64,0,0,0-1.16.12,1.46,1.46,0,0,0-.73.38,1.59,1.59,0,0,0-.39.74,5.17,5.17,0,0,0-.11,1.14v.35H77.85a.35.35,0,0,1,.4.39v1.38c0,.26-.13.38-.4.38H67.77v4.55a.35.35,0,0,1-.4.39H65.44Q65,20,65,19.56V12.32a7.36,7.36,0,0,1,.28-2.14,3.27,3.27,0,0,1,.88-1.42A3.64,3.64,0,0,1,67.73,8a9.15,9.15,0,0,1,2.32-.25Z"/><path class="cls-1" d="M94.49,7.7c.27,0,.41.13.41.38V9.8a.36.36,0,0,1-.41.4H88.85v9.36a.34.34,0,0,1-.39.39h-2a.34.34,0,0,1-.39-.39V10.2H80.47a.36.36,0,0,1-.41-.4V8.08c0-.25.14-.38.41-.38Z"/><path class="cls-1" d="M104.49,13.67a6.78,6.78,0,0,1,1.47.14,2.39,2.39,0,0,1,1,.46,1.65,1.65,0,0,1,.52.81,4.08,4.08,0,0,1,.15,1.18V20.4a.26.26,0,0,1-.29.28H106a.26.26,0,0,1-.29-.28V16.69a4.27,4.27,0,0,0,0-.67.91.91,0,0,0-.2-.43.82.82,0,0,0-.41-.23,2.56,2.56,0,0,0-.69-.07h-2.3V20.4c0,.18-.1.28-.3.28h-1.29a.26.26,0,0,1-.29-.28V15.29H98a2.8,2.8,0,0,0-.7.07.94.94,0,0,0-.43.23.85.85,0,0,0-.23.43,2.65,2.65,0,0,0-.07.67V20.4a.25.25,0,0,1-.29.28H95c-.2,0-.3-.1-.3-.28V16.26a3.74,3.74,0,0,1,.16-1.18,1.71,1.71,0,0,1,.51-.81,2.39,2.39,0,0,1,1-.46,6.85,6.85,0,0,1,1.49-.14Z"/><path class="cls-1" d="M116.39,13.67a4.29,4.29,0,0,1,1.1.11,1.49,1.49,0,0,1,.7.35,1.41,1.41,0,0,1,.36.66,3.86,3.86,0,0,1,.1,1V17a.72.72,0,0,1-.18.57.81.81,0,0,1-.56.16h-6.62V18a1.12,1.12,0,0,0,.3.87,1.75,1.75,0,0,0,1.14.26h5.46a.21.21,0,0,1,.24.23v1.08a.21.21,0,0,1-.24.23h-5.64a6.92,6.92,0,0,1-1.49-.14,2.28,2.28,0,0,1-1-.46,1.77,1.77,0,0,1-.52-.8,4.06,4.06,0,0,1-.16-1.18V16.26a4.06,4.06,0,0,1,.16-1.18,1.8,1.8,0,0,1,.52-.81,2.41,2.41,0,0,1,1-.46,6.92,6.92,0,0,1,1.49-.14Zm-5.1,2.9h5.31a.2.2,0,0,0,.22-.22v-.54a.78.78,0,0,0-.17-.56.9.9,0,0,0-.63-.16h-3.29a1.75,1.75,0,0,0-1.14.26,1.09,1.09,0,0,0-.3.87Z"/><path class="cls-1" d="M121.44,13.67V12a.26.26,0,0,1,.29-.28H123a.25.25,0,0,1,.29.28v1.69h2.29c.16,0,.24.07.24.23v1c0,.16-.08.23-.24.23h-2.29v3a1.19,1.19,0,0,0,.22.78,1.17,1.17,0,0,0,.88.25h1.27a.21.21,0,0,1,.24.23v1.05a.21.21,0,0,1-.24.23H124.1a5.15,5.15,0,0,1-1.3-.14,2,2,0,0,1-.82-.45,1.67,1.67,0,0,1-.42-.79,4.92,4.92,0,0,1-.12-1.16v-3H120.2c-.16,0-.24-.07-.24-.23v-1c0-.16.08-.23.24-.23Z"/><path class="cls-1" d="M134.23,13.67c.16,0,.24.07.24.23V15a.21.21,0,0,1-.24.23h-3.48a2.66,2.66,0,0,0-.69.07.92.92,0,0,0-.44.23.85.85,0,0,0-.23.43,2.65,2.65,0,0,0-.07.67v3.8a.25.25,0,0,1-.29.28h-1.28c-.2,0-.3-.1-.3-.28V16.26a3.74,3.74,0,0,1,.16-1.18,1.71,1.71,0,0,1,.51-.81,2.39,2.39,0,0,1,1-.46,6.85,6.85,0,0,1,1.49-.14Z"/><path class="cls-1" d="M137.61,11.08c.19,0,.29.09.29.28v1.21a.25.25,0,0,1-.29.29h-1.28c-.2,0-.3-.09-.3-.29V11.36c0-.19.1-.28.3-.28Zm0,2.59a.26.26,0,0,1,.29.29V20.4a.26.26,0,0,1-.29.28h-1.28a.25.25,0,0,1-.29-.28V14a.25.25,0,0,1,.29-.29Z"/><path class="cls-1" d="M145.88,13.67a6.82,6.82,0,0,1,1.48.14,2.44,2.44,0,0,1,1,.46,1.71,1.71,0,0,1,.51.81,3.74,3.74,0,0,1,.16,1.18v3.4a2.27,2.27,0,0,1-.05.5.64.64,0,0,1-.15.31.62.62,0,0,1-.3.16,2,2,0,0,1-.47.05H141.8a3.62,3.62,0,0,1-1-.11,1.46,1.46,0,0,1-.63-.33,1.25,1.25,0,0,1-.33-.56,3.22,3.22,0,0,1-.1-.82v-.61a2.59,2.59,0,0,1,.1-.71,1.32,1.32,0,0,1,.33-.53,1.56,1.56,0,0,1,.63-.32,3.62,3.62,0,0,1,1-.11h5.33v-.24a1.66,1.66,0,0,0-.07-.53.75.75,0,0,0-.22-.35,1.15,1.15,0,0,0-.43-.2,3.48,3.48,0,0,0-.71-.06h-5.47A.21.21,0,0,1,140,15V13.9c0-.16.08-.23.24-.23Zm.87,5.6a.37.37,0,0,0,.29-.09.51.51,0,0,0,.09-.34V17.72h-4.79a.85.85,0,0,0-.57.15.64.64,0,0,0-.17.47v.27a.66.66,0,0,0,.17.5.79.79,0,0,0,.57.16Z"/><path class="cls-2" d="M50.86,25.09V30h-.33v-.81a1.53,1.53,0,0,1-.59.62,1.64,1.64,0,0,1-.86.22,1.76,1.76,0,0,1-.89-.23,1.57,1.57,0,0,1-.63-.62,1.77,1.77,0,0,1-.23-.9,1.81,1.81,0,0,1,.23-.91,1.51,1.51,0,0,1,.63-.62,1.76,1.76,0,0,1,.89-.23,1.71,1.71,0,0,1,.85.22,1.57,1.57,0,0,1,.59.61V25.09Zm-1,4.45a1.49,1.49,0,0,0,.51-.52,1.67,1.67,0,0,0,0-1.51,1.44,1.44,0,0,0-2.48,0,1.67,1.67,0,0,0,0,1.51,1.49,1.49,0,0,0,2,.52Z"/><path class="cls-2" d="M55,25.63a.24.24,0,0,1-.08-.19.22.22,0,0,1,.08-.19.24.24,0,0,1,.19-.08.26.26,0,0,1,.28.26.26.26,0,0,1-.08.19.24.24,0,0,1-.2.08A.26.26,0,0,1,55,25.63Zm0,.91h.34V30H55Z"/><path class="cls-2" d="M62.67,26.54v3.08a1.67,1.67,0,0,1-.43,1.27A1.79,1.79,0,0,1,61,31.3a3.12,3.12,0,0,1-.93-.14,1.78,1.78,0,0,1-.69-.41l.18-.25a1.92,1.92,0,0,0,.64.37A2.26,2.26,0,0,0,61,31a1.47,1.47,0,0,0,1-.32,1.35,1.35,0,0,0,.34-1v-.58a1.46,1.46,0,0,1-.6.58,1.81,1.81,0,0,1-.87.21,1.93,1.93,0,0,1-.9-.22,1.52,1.52,0,0,1-.63-.6,1.65,1.65,0,0,1-.23-.86,1.71,1.71,0,0,1,.23-.87,1.56,1.56,0,0,1,.63-.59,1.93,1.93,0,0,1,.9-.22,1.82,1.82,0,0,1,.88.22,1.51,1.51,0,0,1,.61.59v-.78Zm-1,2.85a1.18,1.18,0,0,0,.52-.49,1.28,1.28,0,0,0,.19-.71,1.34,1.34,0,0,0-.19-.72,1.21,1.21,0,0,0-.52-.48,1.53,1.53,0,0,0-.74-.18,1.5,1.5,0,0,0-.74.18,1.34,1.34,0,0,0-.52.48,1.43,1.43,0,0,0-.19.72,1.37,1.37,0,0,0,.19.71,1.29,1.29,0,0,0,.52.49,1.5,1.5,0,0,0,.74.18A1.53,1.53,0,0,0,61.63,29.39Z"/><path class="cls-2" d="M66.79,25.63a.27.27,0,0,1-.08-.19.27.27,0,0,1,.28-.27.29.29,0,0,1,.2.07.27.27,0,0,1,.08.19.27.27,0,0,1-.28.27A.29.29,0,0,1,66.79,25.63Zm0,.91h.34V30h-.34Z"/><path class="cls-2" d="M73.06,29.77a1.06,1.06,0,0,1-.33.19,1.34,1.34,0,0,1-.4.06,1,1,0,0,1-.71-.25.93.93,0,0,1-.25-.69V26.83h-.65v-.29h.65v-.75h.34v.75h1.12v.29H71.71v2.22a.73.73,0,0,0,.16.51.64.64,0,0,0,.49.17.77.77,0,0,0,.55-.19Z"/><path class="cls-2" d="M78.91,26.84a1.23,1.23,0,0,1,.35,1V30h-.32v-.61a1.14,1.14,0,0,1-.5.47,1.67,1.67,0,0,1-.78.17,1.47,1.47,0,0,1-.93-.27.92.92,0,0,1,0-1.41,1.51,1.51,0,0,1,1-.27h1.22v-.28a.94.94,0,0,0-.27-.73,1.1,1.1,0,0,0-.79-.25,2.14,2.14,0,0,0-.67.11,1.85,1.85,0,0,0-.55.32L76.49,27a1.93,1.93,0,0,1,.63-.36,2.55,2.55,0,0,1,.78-.13A1.41,1.41,0,0,1,78.91,26.84Zm-.45,2.71a1.24,1.24,0,0,0,.47-.58v-.64H77.72a1.27,1.27,0,0,0-.76.18.68.68,0,0,0,0,1,1.16,1.16,0,0,0,.72.2A1.35,1.35,0,0,0,78.46,29.55Z"/><path class="cls-2" d="M83.37,25.09h.34V30h-.34Z"/><path class="cls-2" d="M94.51,26.84a1.27,1.27,0,0,1,.35,1V30h-.32v-.61a1.2,1.2,0,0,1-.5.47,1.73,1.73,0,0,1-.78.17,1.47,1.47,0,0,1-.93-.27A.86.86,0,0,1,92,29a.85.85,0,0,1,.31-.69,1.54,1.54,0,0,1,1-.27h1.21v-.28a1,1,0,0,0-.26-.73,1.1,1.1,0,0,0-.79-.25,2.14,2.14,0,0,0-.67.11,1.73,1.73,0,0,0-.55.32L92.08,27a2.09,2.09,0,0,1,.64-.36,2.55,2.55,0,0,1,.78-.13A1.43,1.43,0,0,1,94.51,26.84Zm-.45,2.71a1.22,1.22,0,0,0,.46-.58v-.64h-1.2a1.27,1.27,0,0,0-.76.18.59.59,0,0,0-.23.51.63.63,0,0,0,.25.53,1.22,1.22,0,0,0,.73.2A1.4,1.4,0,0,0,94.06,29.55Z"/><path class="cls-2" d="M99.8,26.72a1.59,1.59,0,0,1,.84-.21v.33h-.08a1.19,1.19,0,0,0-.92.36,1.44,1.44,0,0,0-.33,1V30H99V26.54h.32v.75A1.18,1.18,0,0,1,99.8,26.72Z"/><path class="cls-2" d="M106.21,29.77a1,1,0,0,1-.32.19,1.4,1.4,0,0,1-.41.06,1,1,0,0,1-.71-.25.93.93,0,0,1-.25-.69V26.83h-.65v-.29h.65v-.75h.34v.75H106v.29h-1.13v2.22a.73.73,0,0,0,.17.51.62.62,0,0,0,.49.17.8.8,0,0,0,.55-.19Z"/><path class="cls-2" d="M119.76,26.89a1.47,1.47,0,0,1,.37,1.09v2h-.34V28a1.18,1.18,0,0,0-.29-.88,1,1,0,0,0-.81-.31,1.24,1.24,0,0,0-1,.37,1.34,1.34,0,0,0-.35,1V30h-.34V28a1.18,1.18,0,0,0-.29-.88,1,1,0,0,0-.81-.31,1.24,1.24,0,0,0-1,.37,1.34,1.34,0,0,0-.35,1V30h-.33V26.54h.32v.74a1.25,1.25,0,0,1,.53-.56,1.57,1.57,0,0,1,.83-.21,1.48,1.48,0,0,1,.81.22,1.08,1.08,0,0,1,.48.62,1.35,1.35,0,0,1,.55-.61,1.72,1.72,0,0,1,.88-.23A1.41,1.41,0,0,1,119.76,26.89Z"/><path class="cls-2" d="M127.24,28.35h-3a1.44,1.44,0,0,0,.21.71,1.39,1.39,0,0,0,.53.49,1.73,1.73,0,0,0,.76.17,1.69,1.69,0,0,0,.64-.12,1.18,1.18,0,0,0,.49-.36l.2.22a1.43,1.43,0,0,1-.58.41,1.91,1.91,0,0,1-.76.15,2,2,0,0,1-.94-.23,1.68,1.68,0,0,1-.65-.62,1.77,1.77,0,0,1-.23-.9,1.83,1.83,0,0,1,.22-.91,1.65,1.65,0,0,1,.61-.62,1.74,1.74,0,0,1,1.73,0,1.53,1.53,0,0,1,.6.61,1.82,1.82,0,0,1,.22.9ZM124.88,27a1.35,1.35,0,0,0-.47.45,1.51,1.51,0,0,0-.21.67h2.71a1.34,1.34,0,0,0-.68-1.12,1.5,1.5,0,0,0-1.35,0Z"/><path class="cls-2" d="M132.76,29.77a1,1,0,0,1-.32.19,1.34,1.34,0,0,1-.4.06.87.87,0,0,1-1-.94V26.83h-.65v-.29h.65v-.75h.34v.75h1.13v.29h-1.13v2.22a.73.73,0,0,0,.17.51.62.62,0,0,0,.49.17.8.8,0,0,0,.55-.19Z"/><path class="cls-2" d="M137.25,26.72a1.59,1.59,0,0,1,.84-.21v.33H138a1.18,1.18,0,0,0-.92.36,1.39,1.39,0,0,0-.34,1V30h-.34V26.54h.33v.75A1.18,1.18,0,0,1,137.25,26.72Z"/><path class="cls-2" d="M141.71,25.63a.24.24,0,0,1-.08-.19.22.22,0,0,1,.08-.19.24.24,0,0,1,.19-.08.27.27,0,0,1,.2.07.24.24,0,0,1,.08.19.22.22,0,0,1-.08.19.24.24,0,0,1-.2.08A.26.26,0,0,1,141.71,25.63Zm0,.91h.33V30h-.33Z"/><path class="cls-2" d="M146.7,29.79a1.59,1.59,0,0,1-.64-.62,1.9,1.9,0,0,1,0-1.81,1.53,1.53,0,0,1,.64-.62,1.87,1.87,0,0,1,.92-.23,1.77,1.77,0,0,1,.77.17,1.25,1.25,0,0,1,.57.47l-.25.18a1.26,1.26,0,0,0-.47-.39,1.6,1.6,0,0,0-.62-.13,1.5,1.5,0,0,0-.74.18,1.44,1.44,0,0,0-.52.52,1.55,1.55,0,0,0-.18.76,1.58,1.58,0,0,0,.18.76,1.34,1.34,0,0,0,.52.51,1.5,1.5,0,0,0,.74.18,1.44,1.44,0,0,0,.62-.13,1.15,1.15,0,0,0,.47-.38l.25.17a1.34,1.34,0,0,1-.57.48,1.93,1.93,0,0,1-.77.16A1.87,1.87,0,0,1,146.7,29.79Z"/><rect class="cls-3" width="40" height="39" rx="7.61"/><path class="cls-4" d="M30.6,25.12a14.12,14.12,0,0,0-2-4.87c-.38-.61-1.08-1.49-1.08-1.49l-.08-.15-.08-.15c-.3-.45-.09-.61,0-.73A40.7,40.7,0,0,1,31.2,14l.64-.6s0,0,.05-.06l.07,0,.07,0s0,0,0,.06a16.39,16.39,0,0,1,3.33,5.42,24.36,24.36,0,0,1,1.26,4.69c.18,1.08.27,2.17.35,3.27.06.72.11.74-.3.74l-5,0h-.31c-.1,0-.14,0-.21,0a.21.21,0,0,1-.1-.09A1.62,1.62,0,0,1,31,27C30.88,26.69,30.77,26,30.6,25.12Z"/><path class="cls-4" d="M29.21,11a3.64,3.64,0,0,1,.87.36,1.13,1.13,0,0,1,.36.22l-1.37,1-2.33,1.75s-1,.9-1.6,1.3c-.08.06-.35-.11-.35-.11a1.46,1.46,0,0,1-.27-.13L23.74,15l-.94-.24a12.43,12.43,0,0,0-2.09-.32c-.23,0-.46,0-.7,0s-.16-.06-.12-.22l.54-2.64c.09-.44.18-.88.25-1.32a.38.38,0,0,1,.06-.16.14.14,0,0,1,.12-.06,20.39,20.39,0,0,1,3.49-.15,13.07,13.07,0,0,1,2.25.29c.47.09.93.22,1.4.34Z"/><path class="cls-4" d="M34.18,10c-.35.34-.67.63-1,.91L28.27,15.4l-4.46,4.09q-2.23,2-4.47,4.13L17,25.72a.45.45,0,0,0-.13.17.45.45,0,0,0,0,.2,1.79,1.79,0,0,1-1.16,1.75,1.83,1.83,0,0,1-2.28-.6,2,2,0,0,1-.39-.83,2,2,0,0,1,0-.93,2,2,0,0,1,.43-.81,2.13,2.13,0,0,1,.76-.53,1.89,1.89,0,0,1,1.08-.08.33.33,0,0,0,.14,0A.21.21,0,0,0,15.6,24l2.84-2.14,3.06-2.31,3.25-2.47,4.37-3.32q1.89-1.43,3.77-2.86L34.05,10Z"/><path class="cls-4" d="M13.49,13.25c0-.09,0-.09.08-.12a19.6,19.6,0,0,1,2.28-1.39c.47-.25,1-.48,1.42-.68A15.19,15.19,0,0,1,19,10.43l.52-.14c.08,0,.12,0,.09.15-.21,1.28-.43,2.55-.64,3.84a.22.22,0,0,1,0,.08.25.25,0,0,1,0,.07l0,0h-.06a9.82,9.82,0,0,0-1.7.25c-.47.11-.93.25-1.4.41a17,17,0,0,0-1.72.73c-.09,0-.11,0-.13-.14l-.39-2.37Z"/><path class="cls-4" d="M12.72,16.57c-.4.31-.62.36-1.1.69a21.59,21.59,0,0,0-2.3,1.82c-.11.09-.22.29-.32.25s-.18-.25-.26-.39-.27-.44-.41-.65a.21.21,0,0,1,0-.3,29.56,29.56,0,0,1,3.16-3.25c.36-.32.75-.62,1.12-.92,0,0,.05-.05.07,0s0,.07,0,.08.13.81.29,1.78a1.1,1.1,0,0,1,.06.37A.84.84,0,0,1,12.72,16.57Z"/><path class="cls-4" d="M2.43,28.64a32.8,32.8,0,0,1,1.4-3.48A34.19,34.19,0,0,1,6.75,20.1l.7-1c.09-.12.15-.13.24,0s.32.53.49.8a.18.18,0,0,1,0,.27,25.09,25.09,0,0,0-1.71,1.95,29.52,29.52,0,0,0-2.68,4c-.46.83-.9,1.71-1.31,2.62C2.41,28.76,2.41,28.71,2.43,28.64Z"/></g></g></svg>