<?xml version="1.0" encoding="utf-8"?><svg viewBox="0 0 48 50" xmlns="http://www.w3.org/2000/svg" xmlns:xlink="http://www.w3.org/1999/xlink"><style>:root>svg{display:none}:root>svg:target{display:block}</style><svg fill="none" viewBox="0 0 24 24" id="burger" xmlns="http://www.w3.org/2000/svg"><g clip-path="url(#aclip0_674_6320)" fill="currentColor"><rect width="24" height="3" rx="1.5"/><rect y="21" width="24" height="3" rx="1.5"/><rect y="11" width="24" height="3" rx="1.5"/></g><defs><clipPath id="aclip0_674_6320"><path fill="#fff" d="M0 0h24v24H0z"/></clipPath></defs></svg><svg fill="none" viewBox="0 0 48 50" id="search" xmlns="http://www.w3.org/2000/svg"><circle cx="20.5" cy="20.5" r="19" stroke="currentColor" stroke-width="3"/><path stroke="currentColor" stroke-width="3" d="M46.939 48.061l-13-13"/></svg><svg fill="none" viewBox="0 0 24 24" id="search-back" xmlns="http://www.w3.org/2000/svg"><path d="M21 11v1H5.64l6.72 6.72-.71.71-7.93-7.93 7.92-7.92.71.71L5.64 11H21z" fill="currentColor"/></svg><svg fill="none" viewBox="0 0 24 24" id="search-close" xmlns="http://www.w3.org/2000/svg"><path d="M12.71 12l8.15 8.15-.71.71L12 12.71l-8.15 8.15-.71-.71L11.29 12 3.15 3.85l.71-.71L12 11.29l8.15-8.15.71.71L12.71 12z" fill="currentColor"/></svg></svg>